<?xml version="1.0" standalone="no"?>
<!DOCTYPE svg PUBLIC "-//W3C//DTD SVG 20010904//EN"
 "http://www.w3.org/TR/2001/REC-SVG-20010904/DTD/svg10.dtd">
<svg version="1.0" xmlns="http://www.w3.org/2000/svg"
 width="512.000000pt" height="512.000000pt" viewBox="0 0 512.000000 512.000000"
 preserveAspectRatio="xMidYMid meet">

<g transform="translate(0.000000,512.000000) scale(0.100000,-0.100000)"
fill="#000000" stroke="none">
<path d="M2365 4820 c-531 -56 -1009 -282 -1375 -651 -343 -346 -559 -778
-636 -1274 -23 -151 -23 -479 0 -630 77 -496 296 -934 638 -1277 692 -691
1762 -855 2626 -402 617 323 1041 904 1173 1604 21 111 24 154 24 390 0 236
-3 279 -24 390 -86 458 -285 846 -598 1171 -348 360 -791 589 -1283 664 -124
19 -431 27 -545 15z m220 -50 c-3 -5 -13 -10 -21 -10 -17 0 -17 -12 -3 -155
12 -125 21 -155 47 -155 28 0 41 20 122 178 41 78 77 139 81 135 4 -5 26 -75
49 -158 23 -82 46 -157 51 -166 11 -22 46 -30 59 -13 7 7 27 70 46 140 31 119
32 129 17 146 -9 10 -14 20 -12 22 2 1 49 -10 104 -26 119 -35 145 -55 145
-113 0 -48 -20 -80 -55 -89 -24 -6 -26 -10 -20 -39 4 -18 17 -57 29 -87 35
-89 51 -79 113 70 46 110 50 127 37 141 -26 29 -15 28 61 -4 74 -30 96 -49 53
-44 -19 2 -29 -14 -75 -126 -30 -70 -51 -132 -48 -137 3 -6 20 -10 37 -10 23
0 62 23 160 96 71 53 131 94 134 91 3 -3 -4 -76 -16 -162 -12 -86 -19 -163
-16 -170 3 -8 14 -19 25 -24 18 -10 30 0 105 88 83 95 98 122 76 136 -6 4 -8
11 -5 16 4 5 26 -8 50 -28 l44 -36 -5 -116 -6 -116 46 50 c40 43 46 55 42 83
-5 30 -3 32 12 21 34 -26 62 -53 62 -59 0 -4 -10 -5 -22 -3 -19 4 -40 -16
-118 -111 -52 -63 -99 -115 -103 -115 -4 -1 -5 71 -1 159 4 88 5 160 2 160 -3
0 -34 -33 -68 -72 -51 -61 -60 -78 -56 -100 3 -16 3 -28 0 -28 -2 0 -27 18
-55 40 -27 21 -72 51 -99 66 -47 25 -71 54 -33 40 20 -8 33 10 33 44 0 19 -10
30 -42 48 -38 20 -43 21 -65 7 -24 -16 -30 -39 -13 -50 6 -3 10 -11 10 -16 0
-6 -15 -2 -32 9 -18 11 -69 35 -113 52 -44 18 -84 36 -90 41 -5 4 -29 12 -52
18 l-41 11 -28 90 c-15 50 -30 90 -34 90 -8 0 -30 -83 -30 -115 0 -16 6 -25
15 -25 8 0 15 -4 15 -10 0 -14 -5 -13 -84 10 -38 11 -102 22 -143 26 -40 4
-76 11 -79 15 -3 5 5 9 17 9 19 0 21 4 14 38 -4 20 -8 38 -8 38 -1 1 -25 4
-53 8 -50 6 -52 6 -64 -23 -13 -32 -7 -51 16 -51 8 0 14 -3 14 -7 0 -5 -60 -8
-134 -8 -74 -1 -132 3 -130 7 3 4 12 8 21 8 14 0 15 12 9 93 -4 50 -10 110
-13 132 l-6 39 -18 -64 c-9 -36 -27 -102 -39 -147 -12 -46 -26 -80 -31 -77 -5
3 -39 63 -74 132 l-65 127 6 -75 c12 -143 17 -164 42 -175 12 -5 22 -13 22
-16 0 -7 -101 -18 -108 -13 -2 1 5 11 15 21 17 17 18 28 12 99 -18 182 -20
196 -40 201 -30 8 -22 20 19 27 85 14 83 15 137 -94 27 -55 51 -98 53 -96 2 2
15 51 30 108 l27 103 35 6 c58 10 102 10 95 -1z m-624 -158 c37 -21 77 -87 85
-138 5 -33 1 -53 -15 -86 -26 -53 -45 -67 -148 -106 -44 -17 -109 -48 -143
-68 -34 -20 -65 -33 -68 -29 -4 4 -1 10 6 12 20 8 14 30 -15 48 -26 17 -28 17
-70 -6 -47 -26 -47 -26 -33 -64 6 -16 17 -26 27 -24 38 3 36 -2 -9 -31 -27
-17 -50 -30 -52 -30 -2 0 -2 17 1 38 3 20 -5 101 -16 180 -24 162 -24 162 -13
162 4 0 65 -45 137 -101 97 -75 136 -99 155 -97 14 2 26 10 28 20 2 10 -18 74
-44 143 -43 115 -49 125 -72 125 -42 0 -14 16 83 49 94 32 126 33 176 3z m824
-302 c424 -49 829 -258 1102 -570 202 -231 338 -503 405 -810 20 -92 23 -133
23 -340 0 -209 -3 -247 -23 -343 -149 -695 -676 -1220 -1365 -1359 -97 -20
-142 -23 -337 -23 -252 1 -337 14 -540 81 -590 197 -1027 696 -1152 1315 -20
99 -23 143 -22 334 0 189 3 235 23 325 76 357 228 638 480 891 156 156 294
254 481 343 173 81 394 144 565 159 89 8 275 6 360 -3z m-1463 -30 c102 -29
167 -154 124 -238 -8 -15 -47 -59 -88 -97 -40 -39 -97 -96 -127 -128 -29 -32
-56 -56 -59 -53 -2 3 1 13 9 22 12 15 5 25 -66 91 -124 115 -142 128 -160 113
-9 -7 -18 -10 -21 -7 -7 7 96 127 108 127 11 0 10 -18 -2 -25 -5 -3 -10 -10
-10 -14 0 -10 211 -201 221 -201 4 0 17 14 29 30 l22 30 -93 111 c-80 94 -96
109 -116 104 -13 -3 -23 -3 -23 -1 0 3 32 32 72 66 60 50 99 72 138 79 3 1 22
-4 42 -9z m2909 -273 c133 -89 89 -273 -74 -311 -60 -14 -140 32 -176 101 -14
27 -14 83 0 120 37 99 167 146 250 90z m-3305 -99 c24 -17 44 -35 44 -39 0 -4
-16 -5 -34 -2 -50 8 -85 -4 -98 -32 -8 -19 -8 -28 2 -40 17 -21 41 -19 110 10
79 33 112 32 152 -4 28 -25 33 -36 33 -76 0 -43 -4 -51 -43 -85 -28 -26 -40
-43 -36 -54 3 -9 1 -16 -5 -16 -6 0 -20 -18 -31 -40 -11 -22 -22 -40 -23 -40
-22 0 -173 -23 -180 -27 -13 -8 71 -52 98 -53 12 0 26 5 33 12 21 21 14 -9
-18 -72 -31 -61 -58 -91 -48 -52 8 28 -8 40 -129 101 -105 52 -138 61 -146 39
-2 -7 -8 -10 -12 -6 -11 10 84 186 114 209 51 40 141 -3 141 -67 0 -24 3 -25
38 -20 20 3 58 8 84 11 26 3 50 10 53 14 2 5 -13 20 -35 35 -39 26 -55 54 -24
42 79 -30 158 6 139 64 -10 33 -49 35 -120 6 -87 -35 -110 -33 -151 8 -50 50
-41 123 20 156 19 9 25 19 20 32 -8 25 1 23 52 -14z m3517 -302 c21 -8 48 -22
59 -33 27 -23 57 -90 58 -125 0 -18 5 -28 15 -28 30 0 14 -21 -31 -41 -52 -22
-66 -19 -40 10 42 47 26 130 -30 151 -55 21 -183 -39 -204 -96 -7 -18 -6 -35
5 -59 7 -19 16 -35 19 -35 3 0 21 7 40 17 25 11 36 24 38 42 3 23 8 18 36 -36
36 -69 41 -93 17 -73 -13 10 -23 9 -55 -5 l-40 -18 -30 28 c-82 78 -92 206
-22 268 22 20 86 46 112 46 8 0 32 -6 53 -13z m-3803 -279 c23 -9 23 -10 5
-14 -61 -12 -67 -15 -81 -48 -8 -19 -14 -39 -14 -44 0 -12 107 -47 116 -39 12
12 -7 45 -31 56 -55 25 -20 29 53 6 42 -13 80 -24 85 -24 4 0 7 -4 7 -9 0 -6
-17 -11 -37 -13 -55 -4 -56 -31 -1 -47 24 -7 50 -14 59 -17 12 -3 20 5 28 27
17 49 14 65 -20 104 -18 20 -30 37 -28 39 2 2 27 -7 56 -19 l52 -23 -36 -119
c-40 -134 -52 -162 -53 -121 0 26 -6 29 -97 57 -194 59 -182 57 -197 35 -8
-10 -16 -17 -19 -14 -3 4 47 181 68 238 5 13 35 9 85 -11z m3713 -91 c12 -7
83 -21 157 -31 74 -10 141 -21 147 -24 8 -4 -36 -45 -112 -104 -112 -88 -125
-102 -125 -129 l0 -31 98 7 c148 10 172 15 172 37 0 11 4 19 9 19 9 0 21 -74
20 -129 0 -33 -1 -34 -10 -13 -9 23 -11 23 -86 16 -185 -17 -178 -14 -181 -56
-3 -29 2 -43 22 -63 14 -14 34 -25 45 -25 11 0 23 -4 26 -10 4 -6 -16 -10 -53
-10 l-58 0 -13 136 c-8 75 -22 163 -32 197 -19 64 -18 83 4 53 12 -16 14 -16
39 3 24 19 25 24 16 61 -11 42 -38 66 -64 56 -8 -3 -14 -15 -14 -26 0 -36 -17
-21 -29 24 -16 65 -16 65 22 42z m-3856 -205 c7 -11 78 -57 158 -102 81 -45
143 -85 138 -90 -4 -4 -80 -26 -168 -48 -101 -26 -165 -47 -172 -58 -21 -27
-24 -10 -13 67 11 81 18 96 27 62 3 -12 10 -22 17 -22 20 0 186 44 186 50 0 9
-157 90 -174 90 -9 0 -16 -7 -16 -15 0 -8 -4 -15 -10 -15 -11 0 -13 24 -4 69
7 36 14 39 31 12z m4242 -383 c0 -51 -17 -117 -18 -75 -1 9 -7 17 -15 17 -11
0 -81 -24 -166 -57 -9 -3 16 -20 69 -44 82 -39 101 -41 101 -13 0 8 5 14 10
14 6 0 10 -22 10 -50 0 -49 -11 -64 -27 -36 -4 7 -72 46 -150 85 -79 39 -143
73 -143 75 0 2 66 27 146 56 81 30 152 59 158 66 20 24 26 15 25 -38z m-4254
-7 c10 -2 75 0 143 4 110 6 125 9 129 26 12 45 23 13 23 -66 0 -50 -4 -85 -10
-85 -5 0 -10 9 -10 20 0 19 -7 20 -148 20 -145 0 -149 -1 -159 -22 -9 -19 -12
-10 -18 54 -8 83 0 115 19 76 6 -12 20 -24 31 -27z m305 -177 c0 -4 -50 -58
-111 -121 -61 -63 -109 -117 -106 -120 6 -6 164 17 195 28 13 5 22 17 22 29 0
11 4 20 9 20 8 0 21 -57 21 -95 -1 -20 -1 -20 -15 0 -15 19 -17 19 -143 1
-125 -18 -162 -32 -162 -63 0 -8 -4 -12 -9 -9 -4 3 -11 29 -14 58 l-7 53 88
88 c78 80 84 88 57 83 -16 -3 -48 -8 -70 -12 -51 -9 -75 -21 -75 -39 0 -34
-18 -11 -25 31 -7 52 -1 66 18 40 12 -17 20 -16 162 7 83 14 153 25 158 26 4
1 7 -2 7 -5z m3640 -84 c0 -11 2 -20 4 -20 2 0 59 -11 127 -25 116 -24 125
-24 136 -8 7 9 15 15 17 12 5 -5 -39 -228 -47 -235 -8 -8 -87 6 -87 16 0 4 14
10 30 14 23 4 35 15 45 41 8 19 15 39 15 44 0 10 -62 31 -92 31 -28 0 -21 -29
12 -49 16 -10 28 -20 25 -23 -3 -2 -41 2 -85 11 -80 15 -106 31 -51 31 34 0
62 27 41 40 -22 14 -93 21 -103 11 -5 -5 -10 -28 -11 -51 -1 -34 4 -46 28 -67
15 -13 26 -26 24 -28 -9 -9 -99 28 -95 39 2 6 14 62 27 124 13 61 27 112 32
112 4 0 8 -9 8 -20z m44 -389 c55 -69 92 -109 98 -103 5 5 12 28 15 50 4 32 1
44 -17 62 -31 31 -19 35 29 11 l40 -21 -24 -62 c-13 -35 -32 -85 -42 -112
l-20 -49 -104 132 -104 132 -12 -33 c-20 -56 -16 -103 12 -136 14 -17 25 -33
25 -36 0 -5 -95 38 -107 48 -2 2 66 185 88 236 9 21 12 23 22 9 7 -8 52 -66
101 -128z m-3625 94 c54 -46 65 -140 22 -179 -10 -9 -62 -33 -116 -52 -127
-45 -134 -49 -128 -74 3 -11 1 -20 -3 -20 -11 0 -66 151 -58 159 3 3 10 -2 15
-12 6 -9 16 -17 23 -17 18 0 229 79 240 90 15 15 10 59 -9 80 -26 29 -69 25
-175 -15 -94 -35 -112 -47 -103 -72 3 -7 1 -13 -5 -13 -12 0 -47 98 -38 107 3
3 8 -2 12 -11 9 -23 27 -20 134 19 116 42 149 43 189 10z m170 -560 c84 -43
50 -175 -45 -175 -85 0 -126 100 -65 161 33 32 67 37 110 14z m3240 0 c85 -43
49 -175 -47 -175 -86 0 -125 99 -63 161 33 32 67 37 110 14z m-2816 -359 c18
-7 52 -35 74 -61 25 -28 47 -44 54 -40 6 4 14 3 18 -2 3 -6 39 -27 79 -47 39
-20 72 -39 72 -42 0 -2 -12 -3 -26 -2 -24 3 -31 -7 -87 -114 -59 -114 -60
-117 -44 -142 24 -36 62 -44 95 -19 29 21 121 186 122 216 0 10 -7 20 -15 23
-8 4 -12 10 -9 15 6 10 104 -41 104 -54 0 -4 -11 -5 -24 -1 -23 5 -28 -1 -70
-83 -56 -113 -87 -150 -131 -159 -68 -12 -155 52 -155 116 0 11 25 70 56 131
44 88 53 114 43 125 -17 21 -25 18 -49 -21 -26 -42 -44 -46 -37 -7 13 68 -30
132 -89 132 -40 0 -94 -43 -136 -109 -37 -60 -37 -103 1 -142 16 -16 34 -29
39 -29 5 0 22 18 37 40 23 33 25 42 15 55 -26 31 -2 24 58 -18 63 -43 79 -64
41 -54 -15 4 -27 -4 -47 -33 -15 -22 -34 -39 -42 -40 -8 0 -38 11 -65 24 -93
43 -147 134 -126 212 30 107 148 171 244 130z m2457 -91 c55 -30 113 -55 128
-55 26 -1 24 -3 -28 -50 -30 -28 -62 -50 -69 -50 -12 0 -12 3 -3 12 18 18 15
26 -19 43 -29 16 -32 15 -65 -10 -45 -34 -50 -49 -30 -80 14 -21 20 -24 36
-15 34 18 22 -7 -19 -39 -48 -38 -52 -38 -45 -3 4 19 -10 82 -40 182 -25 84
-46 157 -46 162 0 9 48 -14 200 -97z m-414 -77 c-9 -5 -16 -16 -16 -24 0 -20
132 -244 144 -244 5 0 24 9 42 21 38 23 49 53 41 105 -8 50 9 39 38 -23 l24
-53 -120 -71 c-66 -40 -123 -68 -127 -64 -4 4 -1 10 6 12 22 8 13 34 -58 154
-67 114 -72 119 -98 113 -22 -5 -25 -4 -15 6 21 22 137 87 147 82 5 -3 1 -9
-8 -14z m-3 -358 c35 0 15 -16 -54 -43 -71 -27 -99 -29 -65 -4 16 11 15 15
-12 40 l-29 28 -47 -21 c-44 -18 -47 -22 -44 -52 2 -27 7 -33 26 -32 36 1 25
-15 -24 -37 -49 -20 -65 -19 -45 5 7 8 14 80 18 191 l6 177 126 -126 c70 -69
134 -126 144 -126z m-1463 198 c1 -98 22 -323 31 -334 15 -19 7 -18 -73 8 -67
22 -88 38 -47 38 17 0 20 5 17 37 -3 35 -6 38 -52 52 -47 15 -49 15 -67 -8
-18 -22 -19 -25 -3 -42 25 -28 14 -31 -39 -13 -52 17 -59 29 -24 38 12 3 72
62 132 130 61 69 113 126 118 126 4 0 7 -15 7 -32z m366 -71 c9 -9 -7 -87 -17
-87 -5 0 -9 9 -9 20 0 26 -36 62 -58 58 -12 -2 -23 -35 -43 -138 l-28 -135 22
-17 c21 -17 21 -18 2 -17 -28 0 -145 25 -152 33 -4 3 3 6 15 6 11 0 23 4 27 9
6 11 55 247 55 267 0 26 -57 16 -79 -13 -12 -14 -23 -24 -25 -22 -3 2 0 25 5
50 l10 46 135 -27 c74 -15 137 -30 140 -33z m699 39 c-18 -13 -18 -19 -7 -102
23 -161 34 -197 62 -204 23 -6 23 -7 5 -13 -21 -6 -133 -27 -147 -27 -17 0 -7
18 13 23 17 4 20 11 16 29 -3 13 -14 72 -24 131 l-18 108 -30 -148 c-16 -81
-34 -148 -40 -147 -5 0 -45 56 -88 125 -86 137 -84 139 -49 -41 15 -75 20 -85
40 -88 34 -5 26 -20 -15 -27 -21 -4 -46 -9 -55 -12 -22 -5 -24 13 -3 21 8 3
15 18 15 34 0 30 -38 254 -45 260 -2 2 -11 5 -22 6 -15 3 -19 -5 -23 -43 l-6
-46 -16 36 c-19 44 -23 46 -76 55 l-42 7 0 -67 c0 -80 20 -90 50 -23 l19 42 0
-97 c1 -59 -3 -98 -9 -98 -5 0 -10 9 -10 19 0 10 -9 29 -20 42 -17 21 -21 22
-30 9 -6 -8 -9 -37 -8 -65 l3 -50 44 -3 c46 -3 84 20 97 60 10 34 25 19 19
-19 -14 -79 -2 -73 -150 -73 -74 0 -136 4 -140 9 -3 5 5 11 17 13 23 3 23 6
26 156 2 147 2 152 -18 152 -11 0 -20 5 -20 11 0 8 39 9 133 3 160 -10 160
-10 222 0 l50 7 60 -98 60 -98 20 107 c11 59 25 112 30 117 10 10 46 17 99 20
28 1 29 0 11 -13z"/>
<path d="M3125 4668 c-2 -7 -9 -32 -15 -56 -6 -24 -14 -50 -17 -58 -8 -22 74
-19 85 4 24 45 23 72 -2 97 -28 28 -44 32 -51 13z"/>
<path d="M2742 4595 c-12 -25 -22 -48 -22 -50 0 -3 16 -5 35 -5 39 0 42 10 22
68 l-12 33 -23 -46z"/>
<path d="M3567 4338 l-38 -31 32 -19 c17 -10 32 -18 34 -16 4 5 17 98 13 98
-2 -1 -20 -15 -41 -32z"/>
<path d="M1821 4591 c-11 -7 -6 -30 29 -125 56 -151 58 -153 93 -126 34 27 35
67 5 147 -33 89 -84 131 -127 104z"/>
<path d="M1536 4312 c10 -70 16 -75 54 -44 l22 17 -41 33 -40 32 5 -38z"/>
<path d="M2490 4233 c-507 -36 -974 -304 -1252 -718 -336 -499 -378 -1120
-112 -1661 l54 -112 75 15 c42 7 112 24 156 37 l81 24 13 -32 c7 -17 16 -45
20 -63 6 -30 5 -32 -27 -36 l-33 -4 32 -1 c33 -2 33 -2 48 -74 3 -18 -6 -23
-70 -33 -22 -3 -47 -11 -55 -16 -11 -8 -7 -9 15 -3 91 21 110 22 125 8 12 -12
12 -14 -5 -14 -10 0 -16 -3 -13 -6 4 -3 42 1 85 10 43 8 92 17 108 18 25 2 30
8 30 28 0 20 -6 26 -30 28 -46 5 -65 29 -65 78 0 56 16 66 163 110 175 53 186
54 380 52 139 -1 199 2 255 15 93 21 136 21 168 0 24 -15 30 -15 92 0 37 9 78
18 92 20 18 3 14 5 -11 6 -20 0 -56 -6 -79 -14 -65 -23 -79 -20 -96 20 -16 38
-8 89 22 147 29 57 45 149 54 323 11 212 18 258 36 251 8 -3 7 4 -4 24 -10 17
-19 24 -23 18 -7 -10 -247 -97 -276 -100 -7 -1 -11 -4 -9 -7 11 -18 76 -366
77 -412 2 -65 -7 -85 -56 -128 -29 -25 -45 -31 -81 -31 -44 0 -66 -7 -244 -75
-51 -20 -162 -56 -246 -80 -181 -52 -208 -65 -223 -105 -21 -62 7 -115 63
-122 56 -6 37 -24 -41 -38 -79 -14 -102 -15 -116 -1 -5 5 -13 41 -18 81 -6 40
-19 95 -30 122 -10 27 -19 64 -19 82 0 29 5 36 31 45 18 6 58 11 91 11 32 0
74 6 93 14 18 8 101 62 183 120 258 181 273 188 319 144 35 -33 27 -8 -16 49
-21 28 -54 92 -74 141 -47 117 -67 148 -92 144 -11 -1 -26 2 -33 6 -21 14 -64
218 -66 307 -1 69 3 87 26 132 15 28 32 55 38 58 6 4 28 -5 48 -20 l37 -27
-38 34 c-39 35 -46 62 -22 94 14 18 14 18 15 -8 0 -27 23 -58 42 -58 6 0 0 8
-12 18 -18 14 -21 25 -17 44 17 65 288 373 382 433 96 61 211 82 342 61 80
-13 120 -2 138 39 9 23 21 35 34 35 27 0 51 10 51 22 0 5 -6 6 -12 1 -7 -4
-23 -8 -35 -8 -19 -1 -22 6 -29 65 -4 36 -6 69 -5 74 1 5 -9 2 -23 -8 -14 -9
-33 -16 -41 -16 -14 0 -13 4 4 29 26 36 90 67 156 77 30 4 62 16 78 30 39 33
52 30 74 -13 13 -28 31 -44 68 -61 114 -52 120 -57 152 -112 18 -30 33 -68 33
-85 0 -16 7 -39 15 -49 22 -29 19 -73 -5 -86 -15 -8 -20 -8 -20 1 0 7 -11 2
-25 -11 -15 -14 -39 -24 -62 -26 -54 -3 -53 -3 -53 -18 0 -18 -25 -27 -38 -14
-8 8 -9 5 -6 -8 4 -14 -10 -35 -45 -72 -52 -55 -91 -68 -91 -32 0 11 -4 20
-10 20 -5 0 -10 -7 -10 -17 0 -15 -1 -15 -18 0 -26 24 -42 21 -42 -8 0 -67
-76 -27 -102 54 -18 55 -34 81 -50 81 -5 0 0 -12 11 -27 11 -16 27 -60 36
-100 16 -66 16 -74 1 -104 -19 -39 -19 -40 -4 -36 17 3 58 -79 58 -115 0 -21
5 -28 19 -28 30 0 68 -37 87 -85 20 -55 15 -138 -17 -232 -30 -92 -40 -95 -89
-29 -24 31 -45 56 -47 56 -3 0 1 -8 8 -19 85 -116 124 -184 217 -381 l12 -25
-6 25 c-3 14 -35 83 -70 154 -61 124 -68 158 -31 143 26 -10 74 -89 116 -191
46 -109 70 -149 115 -188 l31 -26 -25 -29 c-20 -22 -18 -21 11 5 43 40 62 35
91 -22 19 -37 22 -39 32 -22 22 38 58 76 71 76 28 0 45 -43 44 -110 0 -65 -9
-64 -24 3 -8 40 -34 46 -62 13 -20 -24 -23 -37 -23 -114 0 -93 -8 -119 -34
-109 -11 5 -16 19 -16 52 0 29 -4 45 -12 45 -7 0 -24 3 -36 7 l-24 6 17 -33
c9 -18 37 -54 61 -80 24 -26 44 -50 44 -54 0 -18 -43 -1 -83 34 -62 55 -74 51
-13 -5 55 -51 104 -61 113 -25 7 24 6 24 69 1 28 -11 76 -23 105 -26 30 -4 80
-14 111 -22 35 -10 71 -13 95 -8 21 3 89 9 151 12 l114 5 25 56 c74 168 121
377 130 582 28 654 -335 1266 -922 1550 -185 90 -371 141 -586 160 -111 10
-145 10 -239 3z"/>
<path d="M3006 3852 c-6 -10 30 -9 40 1 4 4 -2 7 -14 7 -11 0 -23 -4 -26 -8z"/>
<path d="M3060 3841 c0 -5 9 -7 20 -4 11 3 20 7 20 9 0 2 -9 4 -20 4 -11 0
-20 -4 -20 -9z"/>
<path d="M3170 3844 c0 -7 52 -25 57 -20 2 2 -10 8 -26 14 -17 6 -31 9 -31 6z"/>
<path d="M2994 3807 c3 -10 6 -25 6 -34 0 -13 2 -13 15 1 17 16 20 30 6 21 -6
-3 -15 3 -21 12 -11 17 -11 17 -6 0z"/>
<path d="M3090 3800 c0 -11 -5 -20 -12 -20 -6 0 -3 -6 7 -14 18 -13 18 -15 2
-30 -23 -24 -22 -33 2 -12 29 26 82 18 101 -16 12 -22 12 -33 3 -58 -6 -16 -7
-30 -2 -30 15 0 22 53 11 83 -6 17 -9 34 -6 38 3 5 -10 9 -30 9 -19 0 -41 3
-50 6 -19 7 -21 50 -3 57 7 3 5 6 -5 6 -12 1 -18 -6 -18 -19z"/>
<path d="M3295 3780 c10 -11 20 -20 23 -20 3 0 -3 9 -13 20 -10 11 -20 20 -23
20 -3 0 3 -9 13 -20z"/>
<path d="M3041 3744 c0 -11 3 -14 6 -6 3 7 2 16 -1 19 -3 4 -6 -2 -5 -13z"/>
<path d="M3030 3706 c0 -3 9 -15 20 -26 l20 -20 0 22 c0 12 -3 18 -7 15 -3 -4
-12 -2 -20 4 -7 6 -13 9 -13 5z"/>
<path d="M3028 3643 c7 -3 16 -2 19 1 4 3 -2 6 -13 5 -11 0 -14 -3 -6 -6z"/>
<path d="M3067 3643 c-7 -15 30 -41 44 -32 9 6 10 9 2 9 -6 0 -18 7 -27 15 -8
8 -17 12 -19 8z"/>
<path d="M3150 3609 c0 -5 5 -7 10 -4 6 3 10 8 10 11 0 2 -4 4 -10 4 -5 0 -10
-5 -10 -11z"/>
<path d="M2961 3596 c-10 -11 -9 -21 2 -42 9 -17 17 -23 21 -15 4 6 2 11 -5
11 -7 0 -10 11 -7 30 5 34 5 35 -11 16z"/>
<path d="M3216 3588 c3 -5 10 -6 15 -3 13 9 11 12 -6 12 -8 0 -12 -4 -9 -9z"/>
<path d="M3100 3572 c0 -10 -7 -29 -16 -42 l-16 -25 21 24 c19 21 29 61 16 61
-3 0 -5 -8 -5 -18z"/>
<path d="M3245 3540 c3 -5 8 -10 11 -10 2 0 4 5 4 10 0 6 -5 10 -11 10 -5 0
-7 -4 -4 -10z"/>
<path d="M2996 3522 c-8 -13 35 -27 56 -19 7 3 1 6 -14 6 -14 1 -28 6 -30 13
-3 9 -6 9 -12 0z"/>
<path d="M3150 3473 c0 -26 4 -33 20 -33 25 0 25 11 0 41 l-19 24 -1 -32z"/>
<path d="M2562 3271 c12 -22 24 -38 26 -36 5 4 -37 75 -44 75 -3 0 6 -18 18
-39z"/>
<path d="M2591 3204 c0 -11 3 -14 6 -6 3 7 2 16 -1 19 -3 4 -6 -2 -5 -13z"/>
<path d="M2892 3145 c0 -16 2 -22 5 -12 2 9 2 23 0 30 -3 6 -5 -1 -5 -18z"/>
<path d="M2591 3113 c-1 -6 -34 -35 -73 -64 -88 -63 -152 -119 -137 -119 8 0
9 -11 5 -32 -4 -24 -3 -29 4 -18 5 8 10 25 10 36 0 15 11 27 33 37 32 16 167
50 173 44 2 -1 26 -63 53 -137 28 -74 50 -129 51 -122 0 7 -18 61 -41 120 -22
59 -49 143 -59 187 -10 44 -19 75 -19 68z"/>
<path d="M2901 3081 c-1 -25 2 -31 12 -24 6 6 19 13 27 17 8 3 5 4 -7 2 -16
-3 -23 2 -26 18 -3 13 -5 9 -6 -13z"/>
<path d="M2159 3012 c14 -11 38 -27 55 -37 l31 -17 -24 20 c-14 11 -38 27 -55
37 l-31 17 24 -20z"/>
<path d="M2115 2962 c33 -37 75 -62 102 -62 10 1 1 7 -21 15 -21 7 -55 28 -75
47 l-36 33 30 -33z"/>
<path d="M2140 2976 c0 -2 8 -10 18 -17 15 -13 16 -12 3 4 -13 16 -21 21 -21
13z"/>
<path d="M2254 2952 c3 -6 -2 -13 -11 -15 -10 -3 2 -5 27 -5 25 0 38 2 30 5
-8 3 -23 10 -34 15 -12 7 -16 7 -12 0z"/>
<path d="M2248 2893 c6 -2 18 -2 25 0 6 3 1 5 -13 5 -14 0 -19 -2 -12 -5z"/>
<path d="M2087 2849 c7 -7 15 -10 18 -7 3 3 -2 9 -12 12 -14 6 -15 5 -6 -5z"/>
<path d="M2902 2830 c0 -19 2 -27 5 -17 2 9 2 25 0 35 -3 9 -5 1 -5 -18z"/>
<path d="M2268 2843 c7 -3 16 -2 19 1 4 3 -2 6 -13 5 -11 0 -14 -3 -6 -6z"/>
<path d="M2325 2840 l-30 -8 27 -1 c15 0 30 4 33 9 3 6 5 9 3 9 -2 -1 -16 -5
-33 -9z"/>
<path d="M2128 2833 c6 -2 18 -2 25 0 6 3 1 5 -13 5 -14 0 -19 -2 -12 -5z"/>
<path d="M2205 2820 c27 -12 43 -12 25 0 -8 5 -22 9 -30 9 -10 0 -8 -3 5 -9z"/>
<path d="M2260 2800 c8 -5 22 -9 30 -9 10 0 8 3 -5 9 -27 12 -43 12 -25 0z"/>
<path d="M2345 2800 c-3 -5 -1 -10 4 -10 6 0 11 5 11 10 0 6 -2 10 -4 10 -3 0
-8 -4 -11 -10z"/>
<path d="M2358 2768 c-2 -6 -20 -18 -39 -25 l-34 -13 33 6 c21 4 39 1 49 -8
14 -11 15 -11 6 7 -6 11 -8 26 -6 33 3 6 2 12 0 12 -3 0 -7 -5 -9 -12z"/>
<path d="M2195 2701 c-22 -11 -35 -19 -30 -19 14 -1 93 36 80 37 -5 0 -28 -8
-50 -18z"/>
<path d="M2045 2624 c-54 -36 -62 -44 -37 -38 14 4 22 0 27 -16 4 -12 9 -19
12 -17 2 3 -1 15 -7 28 -10 17 -10 24 1 30 22 12 55 38 49 39 -3 0 -23 -12
-45 -26z"/>
<path d="M2400 2645 c0 -5 5 -17 10 -25 5 -8 10 -10 10 -5 0 6 -5 17 -10 25
-5 8 -10 11 -10 5z"/>
<path d="M2827 2523 c36 -54 72 -105 80 -114 12 -15 9 -34 -26 -158 -23 -78
-41 -148 -41 -156 0 -22 50 -74 90 -95 21 -11 60 -24 87 -30 26 -6 58 -13 71
-15 15 -4 22 -12 20 -23 -3 -14 -18 -18 -83 -23 l-80 -5 82 -2 c45 -1 83 2 85
6 2 5 22 6 45 4 24 -2 40 -8 37 -13 -10 -18 -83 -49 -113 -49 -16 0 -33 -5
-37 -12 -5 -8 5 -9 37 -4 47 7 129 50 129 67 0 6 23 8 63 3 34 -4 60 -5 57 -3
-3 2 -23 20 -45 39 -23 20 -30 24 -17 9 39 -45 22 -55 -26 -14 -19 16 -40 52
-58 98 -33 88 -60 128 -186 279 -53 65 -124 158 -157 207 -33 49 -65 92 -70
95 -5 4 20 -38 56 -91z"/>
<path d="M3150 2355 c0 -5 5 -17 10 -25 5 -8 10 -10 10 -5 0 6 -5 17 -10 25
-5 8 -10 11 -10 5z"/>
<path d="M3180 2284 c0 -6 7 -19 16 -30 14 -18 14 -18 3 6 -14 31 -19 36 -19
24z"/>
<path d="M3229 2203 c23 -34 44 -52 39 -34 -2 5 6 17 17 26 19 16 19 16 -3 5
-20 -10 -28 -8 -50 12 l-26 23 23 -32z"/>
<path d="M3280 2155 c0 -7 81 -47 86 -43 2 3 -17 14 -41 26 -25 12 -45 20 -45
17z"/>
<path d="M3371 2144 c0 -11 3 -14 6 -6 3 7 2 16 -1 19 -3 4 -6 -2 -5 -13z"/>
<path d="M2878 1893 c12 -2 32 -2 45 0 12 2 2 4 -23 4 -25 0 -35 -2 -22 -4z"/>
<path d="M3460 1867 c12 -13 141 -54 137 -44 -2 6 -19 16 -38 22 -44 16 -106
29 -99 22z"/>
<path d="M2870 1839 c-11 -7 -4 -8 25 -3 50 8 58 14 19 14 -16 0 -36 -5 -44
-11z"/>
<path d="M3200 1815 c-19 -20 -45 -38 -57 -41 -21 -6 -33 -24 -15 -24 19 1
122 80 122 95 0 13 -19 2 -50 -30z"/>
<path d="M3316 1828 c9 -30 10 -32 30 -24 15 6 15 8 -1 26 -24 27 -38 25 -29
-2z"/>
<path d="M2072 1833 c-63 -13 -67 -15 -48 -22 14 -6 1 -11 -45 -20 -85 -17
-101 -23 -71 -29 13 -2 36 1 50 7 41 17 206 31 278 24 48 -4 64 -3 64 7 0 9
-11 11 -37 7 -27 -5 -42 -2 -55 10 -16 14 -100 24 -136 16z"/>
<path d="M2250 1830 c-18 -12 -2 -12 25 0 13 6 15 9 5 9 -8 0 -22 -4 -30 -9z"/>
<path d="M1938 1823 c-28 -7 -21 -21 7 -15 14 2 25 8 25 13 0 9 -4 10 -32 2z"/>
<path d="M2772 1820 c-18 -4 -36 -11 -40 -15 -11 -12 70 3 82 15 11 11 5 11
-42 0z"/>
<path d="M2584 1807 c-8 -22 11 -46 26 -31 7 7 5 17 -4 30 -14 18 -15 18 -22
1z"/>
<path d="M3651 1816 c12 -10 59 -15 59 -6 0 5 -14 10 -32 10 -17 0 -29 -2 -27
-4z"/>
<path d="M3805 1810 c-24 -6 -16 -8 37 -9 36 0 75 -4 85 -7 12 -5 15 -4 8 4
-14 14 -93 22 -130 12z"/>
<path d="M2420 1803 c-30 -2 -59 -8 -63 -12 -12 -12 125 -1 138 10 5 6 3 8 -5
7 -8 -1 -40 -3 -70 -5z"/>
<path d="M3560 1775 c0 -9 88 -55 106 -55 10 0 -8 14 -40 30 -61 31 -66 33
-66 25z"/>
<path d="M3262 1747 c-12 -13 -22 -29 -22 -36 0 -7 12 2 26 19 31 36 27 50 -4
17z"/>
<path d="M3457 1751 c17 -11 36 -28 42 -38 9 -16 10 -16 11 -1 0 19 -45 58
-69 58 -9 0 -3 -8 16 -19z"/>
<path d="M2133 1753 c15 -2 39 -2 55 0 15 2 2 4 -28 4 -30 0 -43 -2 -27 -4z"/>
<path d="M2770 1739 c-54 -15 -63 -19 -58 -25 8 -7 97 16 104 27 6 11 0 10
-46 -2z"/>
<path d="M1760 1721 c0 -5 15 -13 33 -16 42 -10 63 -25 45 -36 -19 -12 -2 -22
18 -11 12 7 31 3 65 -12 27 -11 49 -24 49 -28 0 -3 -19 -13 -42 -21 -27 -10
-35 -16 -22 -16 12 -1 39 6 59 15 70 29 146 36 225 19 105 -22 140 -17 40 6
-65 15 -104 18 -166 13 -78 -6 -83 -5 -145 27 l-64 34 90 5 c76 4 84 6 53 13
-21 4 -70 5 -110 1 -44 -3 -84 -2 -100 5 -16 6 -28 6 -28 2z"/>
<path d="M2665 1700 c-3 -5 -20 -14 -38 -19 -30 -9 -31 -9 -6 -10 15 -1 37 8
50 19 13 10 19 19 12 20 -6 0 -15 -4 -18 -10z"/>
<path d="M3390 1690 c0 -8 5 -22 10 -30 9 -13 10 -13 10 0 0 8 -5 22 -10 30
-9 13 -10 13 -10 0z"/>
<path d="M1348 1683 c6 -2 18 -2 25 0 6 3 1 5 -13 5 -14 0 -19 -2 -12 -5z"/>
<path d="M2535 1682 c-16 -2 -34 -8 -40 -14 -7 -6 3 -7 30 -2 59 10 66 23 10
16z"/>
<path d="M3790 1675 c70 -18 94 -17 55 0 -16 8 -48 14 -70 14 -40 -1 -40 -1
15 -14z"/>
<path d="M1408 1673 c12 -2 30 -2 40 0 9 3 -1 5 -23 4 -22 0 -30 -2 -17 -4z"/>
<path d="M3023 1661 c-51 -9 -96 -21 -100 -25 -4 -5 8 -6 27 -2 19 4 65 12
103 18 37 7 67 16 67 20 0 4 -1 8 -2 7 -2 -1 -44 -9 -95 -18z"/>
<path d="M1758 1663 c7 -3 16 -2 19 1 4 3 -2 6 -13 5 -11 0 -14 -3 -6 -6z"/>
<path d="M1762 1548 c-7 -7 -12 -27 -12 -45 0 -26 6 -36 25 -45 19 -9 28 -9
37 0 9 9 7 12 -10 12 -24 0 -45 31 -36 54 3 9 17 16 30 16 13 0 24 5 24 10 0
14 -43 13 -58 -2z"/>
<path d="M1852 1548 c-20 -20 -15 -76 8 -88 32 -17 60 4 60 43 0 36 -15 57
-40 57 -9 0 -21 -5 -28 -12z m48 -37 c0 -36 -19 -50 -35 -27 -17 23 -7 56 16
56 14 0 19 -7 19 -29z"/>
<path d="M1952 1503 c1 -36 3 -45 5 -25 5 40 17 41 33 2 19 -45 30 -36 30 25
0 57 -16 76 -22 28 l-4 -28 -14 28 c-21 42 -30 32 -28 -30z"/>
<path d="M2062 1548 c-17 -17 -15 -73 3 -88 12 -10 21 -10 40 -2 43 20 30 102
-15 102 -9 0 -21 -5 -28 -12z m46 -40 c-3 -36 -31 -50 -42 -22 -10 26 3 54 25
54 17 0 20 -6 17 -32z"/>
<path d="M2166 1544 c-32 -31 -7 -94 37 -94 25 0 20 18 -5 22 -18 2 -23 10
-23 33 0 23 5 31 23 33 12 2 22 8 22 13 0 15 -37 10 -54 -7z"/>
<path d="M2250 1505 c0 -54 0 -55 30 -55 17 0 30 5 30 10 0 6 -9 10 -20 10
-11 0 -20 7 -20 15 0 8 7 15 15 15 8 0 15 5 15 10 0 6 -7 10 -15 10 -8 0 -15
5 -15 10 0 6 7 10 15 10 8 0 15 5 15 10 0 6 -11 10 -25 10 -24 0 -25 -3 -25
-55z"/>
<path d="M2330 1505 c0 -30 5 -55 10 -55 6 0 10 11 10 25 0 14 4 25 10 25 5 0
12 -11 16 -25 10 -40 22 -29 20 18 -3 54 -11 67 -42 67 -23 0 -24 -3 -24 -55z
m48 23 c-6 -18 -28 -21 -28 -4 0 9 7 16 16 16 9 0 14 -5 12 -12z"/>
<path d="M2430 1505 c0 -52 1 -55 25 -55 14 0 25 5 25 10 0 6 -9 10 -20 10
-11 0 -20 7 -20 15 0 8 9 15 20 15 11 0 20 5 20 10 0 6 -9 10 -20 10 -11 0
-20 5 -20 10 0 6 9 10 20 10 11 0 20 5 20 10 0 6 -11 10 -25 10 -24 0 -25 -3
-25 -55z"/>
<path d="M2510 1505 c0 -30 5 -55 10 -55 6 0 10 25 10 55 0 30 -4 55 -10 55
-5 0 -10 -25 -10 -55z"/>
<path d="M2567 1553 c-14 -13 -6 -41 16 -56 l22 -16 -22 -7 c-25 -7 -31 -24
-9 -24 38 0 54 51 20 64 -19 7 -18 26 1 26 8 0 15 5 15 10 0 11 -33 14 -43 3z"/>
<path d="M2700 1505 c0 -52 1 -55 24 -55 14 0 28 5 31 10 3 6 -3 10 -14 10
-18 0 -21 6 -21 45 0 25 -4 45 -10 45 -5 0 -10 -25 -10 -55z"/>
<path d="M2796 1548 c-3 -7 -9 -28 -15 -47 -14 -42 -14 -51 -1 -51 6 0 10 7
10 15 0 8 9 15 20 15 11 0 20 -7 20 -15 0 -8 5 -15 10 -15 13 0 13 -3 -5 58
-15 50 -31 66 -39 40z m19 -38 c3 -5 1 -10 -4 -10 -6 0 -11 5 -11 10 0 6 2 10
4 10 3 0 8 -4 11 -10z"/>
<path d="M2935 1513 c8 -27 15 -52 15 -56 0 -25 25 5 36 44 16 53 17 59 5 59
-5 0 -12 -17 -16 -37 l-8 -38 -15 38 c-21 53 -34 46 -17 -10z"/>
<path d="M3030 1505 c0 -52 1 -55 25 -55 30 0 33 16 4 23 -23 6 -17 27 7 27 8
0 14 5 14 10 0 6 -9 10 -20 10 -11 0 -20 5 -20 10 0 6 9 10 20 10 11 0 20 5
20 10 0 6 -11 10 -25 10 -24 0 -25 -3 -25 -55z"/>
<path d="M3110 1506 c0 -58 16 -78 22 -28 l4 27 14 -27 c16 -34 34 -37 24 -5
-4 12 -7 36 -8 52 -1 25 -6 31 -28 33 -28 3 -28 2 -28 -52z m42 19 c0 -5 -5
-11 -11 -13 -6 -2 -11 4 -11 13 0 9 5 15 11 13 6 -2 11 -8 11 -13z"/>
<path d="M3200 1504 l0 -56 32 6 c37 7 48 20 48 58 0 29 -23 48 -59 48 -19 0
-21 -6 -21 -56z m55 1 c0 -20 -6 -31 -17 -33 -15 -3 -18 4 -18 33 0 29 3 36
18 33 11 -2 17 -13 17 -33z"/>
<path d="M3318 1508 c-16 -55 -14 -76 3 -45 13 22 35 22 43 1 4 -9 9 -14 12
-11 10 10 -19 107 -32 107 -6 0 -18 -24 -26 -52z m32 2 c0 -5 -5 -10 -11 -10
-5 0 -7 5 -4 10 3 6 8 10 11 10 2 0 4 -4 4 -10z"/>
<path d="M3410 1505 c0 -61 14 -70 58 -39 42 29 19 94 -34 94 -22 0 -24 -3
-24 -55z m55 0 c0 -20 -6 -31 -17 -33 -15 -3 -18 4 -18 33 0 29 3 36 18 33 11
-2 17 -13 17 -33z"/>
<path d="M1506 1525 c-3 -8 -15 -15 -27 -15 -12 0 -20 -3 -16 -6 10 -11 54 5
61 21 3 8 1 15 -3 15 -5 0 -11 -7 -15 -15z"/>
<path d="M3523 1454 c-10 -26 11 -49 46 -52 23 -2 31 -8 31 -23 0 -11 -7 -19
-17 -19 -12 0 -14 -3 -7 -10 6 -6 18 -8 27 -5 42 17 24 75 -23 75 -29 0 -53
21 -32 28 17 5 15 22 -3 22 -9 0 -18 -7 -22 -16z"/>
<path d="M1627 1453 c-3 -5 -8 -22 -11 -40 -4 -17 -14 -37 -22 -44 -14 -11
-20 -39 -8 -39 3 0 16 13 29 29 14 15 38 34 55 41 22 9 28 16 21 23 -8 8 -15
7 -23 -1 -20 -20 -31 -14 -24 13 6 23 -7 35 -17 18z"/>
<path d="M3464 1412 l-21 -17 35 -52 c19 -29 38 -53 41 -53 15 0 51 32 45 41
-4 6 -11 5 -20 -2 -20 -17 -44 5 -26 23 19 19 14 29 -13 22 -19 -5 -25 -2 -25
9 0 9 5 19 10 22 12 7 13 25 3 25 -5 -1 -17 -9 -29 -18z"/>
<path d="M3110 1410 c0 -5 6 -10 14 -10 8 0 18 5 21 10 3 6 -3 10 -14 10 -12
0 -21 -4 -21 -10z"/>
<path d="M2476 1364 c-48 -25 -94 -43 -101 -40 -7 2 -16 -2 -19 -9 -3 -8 -20
-19 -38 -25 l-33 -10 35 5 c37 5 285 123 260 124 -8 0 -55 -20 -104 -45z"/>
<path d="M3001 1387 c-30 -11 -49 -23 -43 -25 13 -4 101 26 117 40 15 13 -16
7 -74 -15z"/>
<path d="M1714 1338 c-15 -24 -31 -48 -35 -54 -6 -8 0 -17 17 -29 31 -20 40
-15 23 13 -11 17 -9 26 14 61 30 45 32 51 17 51 -5 0 -22 -19 -36 -42z"/>
<path d="M2080 1345 c36 -14 70 -24 75 -24 21 1 -91 49 -115 48 -16 0 -2 -8
40 -24z"/>
<path d="M3164 1354 c3 -8 6 -22 6 -30 0 -8 5 -14 10 -14 17 0 11 47 -6 54
-12 5 -15 2 -10 -10z"/>
<path d="M3381 1356 c-9 -11 -5 -25 19 -65 18 -28 36 -51 41 -51 12 0 11 7 -2
32 -16 29 -2 35 25 9 14 -13 26 -18 30 -13 3 6 -5 19 -19 30 -14 11 -25 26
-25 34 0 34 -47 50 -69 24z m47 -30 c3 -12 -1 -17 -10 -14 -7 3 -15 13 -16 22
-3 12 1 17 10 14 7 -3 15 -13 16 -22z"/>
<path d="M2200 1350 c-11 -7 3 -10 45 -9 43 0 54 3 40 9 -27 12 -67 12 -85 0z"/>
<path d="M1781 1284 c-22 -25 -38 -51 -35 -56 3 -5 12 -1 18 8 16 22 36 10 36
-22 0 -43 16 -25 31 34 17 71 17 74 3 79 -6 2 -30 -17 -53 -43z m31 -16 c-7
-7 -12 -8 -12 -2 0 14 12 26 19 19 2 -3 -1 -11 -7 -17z"/>
<path d="M2565 1309 c22 -4 85 -8 140 -7 86 1 93 2 50 8 -27 5 -90 8 -140 8
-74 0 -83 -2 -50 -9z"/>
<path d="M3302 1311 c-11 -7 -10 -16 6 -47 36 -69 46 -78 70 -65 25 13 30 58
8 67 -8 3 -17 16 -20 30 -7 25 -37 32 -64 15z m39 -24 c-1 -12 -15 -9 -19 4
-3 6 1 10 8 8 6 -3 11 -8 11 -12z m39 -52 c0 -23 -18 -27 -29 -7 -6 11 -8 22
-5 25 10 9 34 -4 34 -18z"/>
<path d="M3250 1278 c1 -7 14 -37 29 -67 37 -71 50 -49 14 23 -26 53 -44 71
-43 44z"/>
<path d="M1915 1268 c-11 -37 -23 -114 -17 -122 3 -5 27 15 53 45 27 30 43 56
37 58 -6 2 -24 -11 -39 -30 -31 -37 -33 -34 -20 24 5 22 5 37 0 37 -5 0 -11
-6 -14 -12z"/>
<path d="M3180 1240 c0 -14 49 -110 56 -110 3 0 14 5 25 10 26 15 24 32 -3 25
-20 -5 -26 1 -41 40 -17 41 -37 60 -37 35z"/>
<path d="M2001 1218 c-5 -13 -16 -40 -24 -61 -16 -37 -16 -38 8 -49 31 -14 45
-3 20 16 -22 16 -11 40 16 33 12 -3 19 0 19 9 0 8 -7 14 -16 14 -9 0 -14 6
-11 13 2 6 13 12 25 12 33 1 37 13 8 25 -36 13 -35 13 -45 -12z"/>
<path d="M2065 1150 c-18 -60 -15 -96 5 -46 12 33 34 24 26 -10 -4 -13 -2 -24
4 -24 5 0 12 12 15 28 4 15 10 35 16 44 14 27 11 46 -10 58 -32 17 -37 12 -56
-50z m55 14 c0 -8 -7 -14 -15 -14 -15 0 -21 21 -9 33 10 9 24 -2 24 -19z"/>
<path d="M3060 1178 c0 -50 12 -108 21 -108 5 0 9 9 9 19 0 28 19 36 35 15 7
-11 17 -16 21 -12 8 9 -62 118 -76 118 -6 0 -10 -15 -10 -32z m35 -28 c3 -5 1
-10 -4 -10 -6 0 -11 5 -11 10 0 6 2 10 4 10 3 0 8 -4 11 -10z"/>
<path d="M2165 1168 c-10 -30 -25 -94 -25 -105 0 -23 67 -16 84 9 32 45 11
108 -35 108 -11 0 -21 -6 -24 -12z m49 -30 c15 -24 -8 -68 -35 -68 -16 0 -20
4 -14 18 3 9 9 30 12 45 6 29 20 31 37 5z"/>
<path d="M2955 1171 c-8 -14 25 -131 37 -131 5 0 7 13 3 30 -8 36 6 39 28 8 8
-13 18 -20 22 -16 4 4 1 18 -8 31 -8 13 -17 37 -19 53 -2 23 -9 30 -30 32 -14
2 -29 -2 -33 -7z m45 -31 c0 -11 -4 -20 -10 -20 -5 0 -10 2 -10 4 0 2 -3 11
-6 20 -4 11 -1 16 10 16 9 0 16 -8 16 -20z"/>
<path d="M2883 1153 c-16 -6 -18 -133 -3 -133 6 0 10 9 10 20 0 24 25 27 38 4
5 -9 14 -15 20 -13 6 2 -3 30 -21 65 -19 36 -37 59 -44 57z m27 -64 c0 -5 -4
-9 -10 -9 -5 0 -10 7 -10 16 0 8 5 12 10 9 6 -3 10 -10 10 -16z"/>
<path d="M2267 1094 c-27 -55 -28 -87 -3 -51 18 23 34 21 38 -5 2 -12 9 -24
17 -26 10 -3 12 0 8 12 -4 10 -7 42 -7 72 0 71 -18 71 -53 -2z m33 1 c0 -8 -4
-15 -10 -15 -5 0 -7 7 -4 15 4 8 8 15 10 15 2 0 4 -7 4 -15z"/>
<path d="M2367 1133 c-3 -5 -7 -35 -8 -68 -4 -55 -2 -60 17 -63 55 -8 94 91
49 124 -20 15 -51 19 -58 7z m53 -58 c0 -32 -24 -65 -37 -51 -8 7 -5 75 3 88
11 18 34 -7 34 -37z"/>
<path d="M2808 1113 c-4 -38 -38 -45 -38 -9 0 14 -4 26 -10 26 -12 0 -12 -19
-4 -84 7 -51 24 -63 24 -16 0 23 4 30 20 30 15 0 20 -7 20 -25 0 -14 5 -25 11
-25 8 0 10 15 5 46 -3 26 -6 55 -6 65 0 30 -18 22 -22 -8z"/>
<path d="M2526 1114 c-39 -38 -25 -115 21 -122 46 -7 71 80 33 118 -24 24 -34
25 -54 4z m50 -38 c6 -25 -10 -66 -26 -66 -16 0 -31 39 -24 65 8 33 41 34 50
1z"/>
<path d="M2632 1118 c-18 -18 -14 -52 8 -66 11 -7 20 -19 20 -28 0 -11 -6 -15
-20 -11 -13 3 -20 0 -20 -10 0 -10 9 -13 28 -11 36 4 44 52 12 75 -22 15 -23
38 -2 38 17 0 16 19 0 23 -7 1 -19 -3 -26 -10z"/>
<path d="M1196 4217 c-17 -13 -12 -22 73 -120 50 -59 96 -107 101 -107 14 0
30 35 30 68 0 56 -107 172 -158 172 -16 0 -36 -6 -46 -13z"/>
<path d="M4153 3964 c-49 -24 -109 -80 -127 -118 -26 -54 -2 -96 55 -96 63 0
189 116 189 175 0 23 -37 55 -62 55 -13 0 -37 -7 -55 -16z"/>
<path d="M690 3570 c-11 -11 -20 -24 -20 -29 0 -8 102 -71 115 -71 3 0 10 12
15 26 13 34 -3 62 -45 80 -43 18 -41 18 -65 -6z"/>
<path d="M4456 3164 c10 -45 19 -48 55 -15 l34 30 -32 1 c-17 0 -39 3 -48 6
-13 5 -15 2 -9 -22z"/>
<path d="M3766 1032 c4 -15 11 -37 15 -50 l9 -23 30 21 c17 12 30 23 30 25 0
2 -20 15 -45 28 l-45 26 6 -27z"/>
<path d="M3230 708 l0 -57 30 11 c45 15 46 27 6 66 l-36 37 0 -57z"/>
<path d="M1907 720 c-15 -17 -27 -35 -27 -39 0 -4 16 -12 35 -18 35 -11 35
-11 34 20 0 18 -4 40 -8 51 -6 17 -10 15 -34 -14z"/>
</g>
</svg>
